<?xml version="1.0" standalone="no"?>
<!DOCTYPE svg PUBLIC "-//W3C//DTD SVG 20010904//EN"
 "http://www.w3.org/TR/2001/REC-SVG-20010904/DTD/svg10.dtd">
<svg version="1.0" xmlns="http://www.w3.org/2000/svg"
 width="756.000000pt" height="756.000000pt" viewBox="0 0 756.000000 756.000000"
 preserveAspectRatio="xMidYMid meet">
<metadata>
Created by potrace 1.14, written by Peter Selinger 2001-2017
</metadata>
<g transform="translate(0.000000,756.000000) scale(0.100000,-0.100000)"
fill="#000000" stroke="none">
<path d="M5175 7413 c-11 -2 -29 -8 -40 -13 -11 -5 -32 -11 -47 -14 -15 -3
-33 -13 -42 -21 -8 -8 -20 -15 -26 -15 -7 0 -23 -9 -36 -19 -21 -16 -30 -18
-54 -9 -17 5 -33 14 -36 19 -3 5 -13 9 -23 9 -9 0 -22 5 -29 12 -18 18 -49 23
-142 23 -77 0 -91 -3 -150 -33 -63 -32 -130 -100 -130 -132 0 -23 -23 -80 -33
-80 -25 0 -104 -47 -135 -81 -20 -21 -42 -39 -49 -39 -7 0 -20 -12 -29 -27 -9
-16 -25 -40 -36 -55 -10 -16 -21 -52 -24 -81 -5 -48 -3 -56 20 -78 14 -13 26
-33 26 -43 0 -22 27 -45 53 -46 9 0 17 -4 17 -9 0 -20 55 -73 91 -88 22 -8 39
-16 39 -17 0 -1 -19 -23 -42 -47 -46 -48 -103 -175 -92 -203 3 -9 1 -16 -5
-16 -6 0 -11 -7 -11 -15 0 -8 -4 -15 -10 -15 -29 0 1 -68 40 -95 17 -11 29
-24 29 -30 -5 -42 5 -69 32 -96 37 -36 75 -52 105 -45 14 4 28 -2 44 -19 13
-14 29 -25 36 -25 6 0 14 -7 18 -15 5 -15 53 -40 69 -37 15 4 6 -18 -14 -30
-68 -43 -160 -219 -263 -508 -117 -328 -173 -450 -244 -530 -33 -38 -41 -54
-33 -63 8 -10 -9 -37 -67 -108 -141 -174 -149 -181 -249 -207 -48 -13 -128
-45 -178 -70 -83 -43 -90 -49 -90 -77 0 -28 3 -30 42 -33 40 -3 41 -4 25 -21
-9 -9 -39 -43 -67 -75 -27 -32 -56 -64 -63 -71 -7 -8 -24 -37 -38 -65 l-26
-52 23 -24 c12 -13 19 -24 14 -24 -4 0 0 -9 9 -19 14 -16 28 -19 74 -15 31 2
76 4 99 4 39 -1 47 5 145 99 57 55 112 117 123 138 46 89 92 149 199 265 161
175 148 166 177 121 17 -27 45 -48 98 -74 40 -21 78 -42 83 -47 5 -5 14 -63
18 -128 5 -66 16 -216 25 -334 29 -370 5 -960 -51 -1270 -14 -74 -27 -151 -29
-170 -2 -19 -17 -93 -35 -163 -19 -75 -29 -139 -26 -153 13 -50 197 -115 401
-142 44 -6 231 -13 415 -16 266 -4 346 -9 390 -22 30 -8 86 -18 124 -21 83 -7
331 11 511 37 113 15 138 22 190 53 33 20 75 51 92 69 l33 34 -20 38 c-10 21
-24 64 -30 95 -7 31 -22 99 -35 151 -13 52 -27 111 -30 130 -3 19 -15 71 -26
114 -11 44 -22 94 -24 111 -3 17 -13 69 -24 115 -11 47 -23 105 -26 130 -3 25
-13 88 -22 140 -24 133 -24 463 0 617 10 61 20 129 21 150 7 73 38 249 59 333
25 101 29 319 8 440 -7 41 -15 95 -17 120 -2 25 -13 79 -24 120 -10 41 -21 91
-25 110 -3 19 -15 62 -26 96 -11 33 -21 69 -23 80 -6 30 -77 237 -89 259 -6
11 -12 26 -13 33 -1 7 -14 35 -28 62 -15 28 -24 50 -21 50 8 0 -73 148 -111
201 -33 48 -33 62 1 73 11 3 40 24 64 46 24 22 47 40 52 40 5 0 9 7 9 15 0 7
6 18 14 22 8 4 14 10 14 13 -2 12 14 50 21 50 18 0 35 81 34 175 0 106 1 104
-80 248 -7 12 -13 30 -13 40 0 9 -3 17 -7 17 -8 0 -33 48 -33 63 0 5 -9 21
-19 36 -11 15 -23 39 -26 54 -4 15 -11 27 -16 27 -4 0 -11 15 -15 33 -9 43
-90 117 -132 120 -27 2 -31 6 -36 41 -4 22 -13 51 -20 65 -7 14 -21 44 -32 65
-10 21 -31 52 -46 69 -16 16 -28 32 -28 36 0 3 -24 27 -52 53 -47 42 -92 70
-163 100 -22 9 -168 17 -200 11z m-687 -509 c128 -23 222 -54 222 -73 0 -9 7
-26 15 -38 15 -21 13 -23 -22 -47 -30 -21 -50 -26 -100 -26 l-63 0 0 38 c-1
72 -82 132 -178 132 -55 0 -62 -3 -86 -30 -14 -17 -30 -48 -36 -69 l-10 -39
-43 15 c-66 22 -87 66 -47 100 27 23 133 50 203 52 32 0 97 -6 145 -15z m497
-25 c15 -6 8 -8 -26 -8 -60 -1 -108 -33 -134 -88 -11 -24 -23 -43 -26 -43 -15
0 -69 63 -75 87 -4 13 -1 36 5 50 l12 25 112 -7 c61 -4 121 -11 132 -16z m65
-19 c13 -9 13 -10 0 -10 -8 0 -22 5 -30 10 -13 9 -13 10 0 10 8 0 22 -5 30
-10z m179 -37 c99 -17 102 -19 84 -35 -11 -10 -23 -18 -26 -18 -4 0 -24 -11
-45 -24 -47 -29 -112 -39 -113 -16 -2 48 -8 63 -35 91 l-29 31 30 -5 c17 -4
77 -14 134 -24z m-759 7 c0 -5 -10 -10 -22 -10 -19 0 -20 2 -8 10 19 13 30 13
30 0z m565 0 c3 -5 -3 -10 -14 -10 -12 0 -21 5 -21 10 0 6 6 10 14 10 8 0 18
-4 21 -10z m643 -965 c-3 -3 -9 2 -12 12 -6 14 -5 15 5 6 7 -7 10 -15 7 -18z
m-950 -207 c-52 -90 -111 -204 -132 -253 -43 -100 -51 -114 -40 -70 11 47 83
190 174 346 8 14 31 53 50 87 19 34 36 60 38 58 2 -2 -39 -78 -90 -168z m974
137 c3 -13 2 -22 -2 -20 -11 7 -20 45 -10 45 4 0 10 -11 12 -25z m63 -176 c25
-78 44 -143 42 -145 -2 -2 -22 51 -44 119 -52 157 -55 167 -49 167 2 0 25 -64
51 -141z m108 -359 c14 -52 28 -120 31 -150 4 -46 4 -49 -4 -20 -5 19 -11 52
-14 72 -3 20 -14 69 -26 109 -12 40 -24 83 -26 96 -2 12 -9 34 -14 48 -6 15
-10 32 -9 38 1 17 32 -80 62 -193z m-1329 18 c-3 -12 -13 -54 -20 -92 -13 -68
-14 -68 -9 -16 4 57 22 130 31 130 3 0 2 -10 -2 -22z m-20 -586 c3 -29 7 -74
10 -100 5 -42 5 -44 -4 -12 -15 59 -21 136 -24 340 l-4 195 8 -185 c5 -102 11
-209 14 -238z m1405 239 c1 -70 -6 -44 -12 44 -4 57 -3 69 3 40 5 -22 9 -60 9
-84z m8 -258 c-3 -115 -12 -305 -21 -423 -50 -685 -59 -1355 -21 -1527 3 -13
2 -23 -3 -23 -4 0 -9 15 -10 33 -1 17 -7 70 -12 117 -13 109 -13 480 0 725 5
105 12 262 15 350 3 88 12 239 20 335 8 96 18 275 22 398 3 122 8 222 11 222
3 0 2 -93 -1 -207z m-1363 -314 c3 -31 17 -109 30 -174 13 -64 20 -113 16
-108 -9 10 -50 217 -61 308 -4 39 -10 90 -13 115 -3 29 0 23 9 -20 7 -36 16
-90 19 -121z m60 -351 c3 -29 12 -71 20 -93 8 -23 19 -92 25 -155 6 -63 18
-158 26 -210 8 -52 14 -106 14 -120 -2 -36 -47 271 -54 364 -3 43 -12 93 -19
110 -7 17 -16 53 -20 80 -4 27 -10 55 -13 62 -3 8 -1 14 5 14 5 0 12 -24 16
-52z m803 -74 c-3 -3 -12 -4 -19 -1 -8 3 -5 6 6 6 11 1 17 -2 13 -5z m-692
-841 c10 -162 -7 -420 -40 -618 -13 -77 -28 -167 -34 -200 l-10 -60 4 62 c2
34 13 110 24 170 11 59 23 140 25 178 3 39 10 113 16 165 16 154 13 269 -14
557 -3 23 -1 44 2 48 7 7 11 -45 27 -302z m1160 -454 c3 -24 12 -69 20 -99 8
-30 17 -74 19 -97 3 -23 15 -76 27 -118 11 -42 19 -79 16 -81 -5 -5 -47 151
-53 199 -2 20 -13 73 -24 119 -19 79 -26 137 -15 126 3 -2 7 -24 10 -49z
m-1478 -65 c-3 -3 -12 -4 -19 -1 -8 3 -5 6 6 6 11 1 17 -2 13 -5z m330 -69 c0
-8 -4 -12 -9 -9 -5 3 -6 10 -3 15 9 13 12 11 12 -6z m1243 -300 c0 -14 -2 -25
-4 -25 -2 0 -6 11 -8 25 -3 14 -1 25 3 25 5 0 9 -11 9 -25z m-1345 -42 c-4
-27 -10 -52 -14 -56 -4 -4 -3 17 2 48 13 67 22 73 12 8z m1369 -55 c14 -49 12
-66 -3 -25 -9 24 -24 98 -16 82 3 -5 11 -31 19 -57z"/>
<path d="M1765 6966 c5 -63 4 -77 -8 -82 -43 -16 -48 -154 -8 -229 11 -22 21
-43 21 -46 0 -4 -20 -17 -44 -29 -24 -11 -50 -27 -56 -35 -17 -20 -3 -112 20
-133 32 -30 34 -65 6 -92 -40 -37 -33 -56 9 -24 44 33 44 51 1 137 -19 38 -33
74 -30 81 3 7 23 23 45 37 80 48 76 37 41 125 -43 106 -41 139 10 188 17 16
19 27 14 65 -4 25 -7 58 -6 73 0 15 -5 30 -11 34 -9 5 -10 -13 -4 -70z"/>
<path d="M931 6994 c-15 -53 -14 -71 6 -105 17 -28 16 -29 -16 -69 -47 -59
-50 -96 -12 -174 42 -87 41 -123 -3 -139 -10 -4 -41 -22 -68 -39 -38 -25 -48
-37 -48 -59 0 -31 29 -99 42 -99 5 0 14 -12 20 -27 11 -28 12 -28 16 -5 2 14
-4 33 -16 45 -11 12 -27 36 -35 53 -15 29 -15 33 1 46 34 28 98 68 110 68 39
0 43 100 6 154 -37 55 -36 100 4 158 30 44 43 98 23 98 -17 0 -23 40 -11 76 8
25 9 39 2 46 -7 7 -14 -2 -21 -28z"/>
<path d="M520 6335 c-18 -21 -8 -48 23 -63 15 -7 27 -17 27 -23 0 -14 48 -11
57 5 4 8 19 16 33 18 19 2 25 9 25 28 0 31 -33 40 -52 14 -12 -17 -15 -16 -41
9 -31 30 -54 34 -72 12z m50 -30 c10 -12 10 -15 -3 -15 -8 0 -20 7 -27 15 -10
12 -10 15 3 15 8 0 20 -7 27 -15z"/>
<path d="M1897 5793 c-4 -3 -7 -17 -7 -29 0 -21 -2 -22 -24 -12 -31 14 -56 4
-56 -21 0 -26 14 -34 67 -38 32 -2 43 1 43 11 0 8 11 23 25 34 14 11 25 29 25
41 0 17 -6 21 -33 21 -19 0 -37 -3 -40 -7z m37 -27 c-21 -15 -30 -14 -19 3 3
6 14 11 23 11 13 0 13 -2 -4 -14z"/>
<path d="M2547 4643 c-4 -3 -7 -19 -7 -34 0 -33 25 -44 96 -43 61 1 74 9 74
44 0 35 -17 39 -50 10 l-23 -20 -19 25 c-18 24 -56 33 -71 18z m48 -51 c-21
-5 -40 12 -30 28 5 8 13 6 27 -7 18 -16 19 -18 3 -21z"/>
<path d="M2310 4497 c0 -20 -12 -52 -30 -80 -16 -26 -30 -54 -30 -62 0 -7 11
-36 25 -63 14 -28 25 -56 25 -64 0 -8 -11 -25 -25 -38 -35 -33 -32 -65 11
-108 31 -31 35 -39 24 -55 -9 -15 -9 -18 2 -15 28 10 20 49 -16 80 -42 36 -45
56 -12 87 35 33 36 51 5 117 l-28 59 26 40 c24 36 45 135 29 135 -3 0 -6 -15
-6 -33z"/>
<path d="M2770 4380 c-11 -11 -20 -25 -20 -31 0 -5 -8 -9 -17 -8 -38 3 -49 -2
-50 -23 -1 -14 -30 -49 -73 -89 -80 -76 -126 -159 -116 -210 4 -24 2 -29 -13
-29 -10 0 -39 -9 -65 -20 -25 -12 -61 -23 -78 -26 -18 -2 -94 -17 -168 -33
l-134 -29 -63 -66 c-61 -64 -131 -183 -147 -250 -4 -16 -7 -122 -7 -235 0
-194 2 -212 26 -284 14 -43 25 -97 25 -120 0 -24 6 -67 14 -97 8 -30 14 -55
13 -55 -1 0 -24 -12 -52 -26 -27 -14 -72 -32 -100 -38 -27 -7 -66 -19 -85 -26
-19 -8 -47 -16 -62 -19 -33 -7 -61 -36 -84 -85 -47 -99 -171 -226 -250 -256
-47 -17 -120 -62 -174 -105 -14 -11 -61 -28 -105 -39 -117 -29 -399 -79 -479
-86 -38 -3 -76 -10 -85 -14 -9 -5 -50 -12 -91 -15 -89 -9 -162 -31 -186 -57
-9 -10 -22 -19 -28 -19 -6 -1 -35 -22 -64 -48 l-53 -48 3 -133 3 -133 29 25
c28 24 36 26 66 14 22 -8 200 -27 260 -27 51 0 52 0 46 -28 -4 -15 -8 -37 -11
-50 -2 -12 -7 -27 -11 -34 -4 -6 -9 -32 -10 -57 -2 -25 -6 -72 -10 -104 -5
-46 -3 -65 12 -92 23 -43 42 -51 141 -54 l81 -3 39 50 c46 58 70 129 55 159
-9 16 -6 21 19 30 23 9 31 8 37 -3 22 -39 180 -39 292 1 74 26 248 47 376 45
29 -1 108 10 175 24 68 15 150 26 182 26 32 0 67 5 78 11 11 5 49 13 85 16 62
5 68 4 159 -42 l94 -48 53 13 c29 6 76 14 103 16 28 3 55 7 60 8 6 2 14 4 18
4 17 2 77 88 73 104 -3 14 2 18 23 18 15 0 42 13 61 30 19 16 40 29 46 30 28
1 121 -36 144 -57 28 -26 82 -30 140 -10 30 10 35 17 35 42 0 17 -6 31 -12 31
-7 1 -22 2 -32 3 -10 0 -27 9 -38 18 -10 10 -13 14 -6 9 7 -4 21 -5 30 -1 10
4 36 8 58 7 22 0 45 4 52 9 7 7 18 6 31 -2 16 -10 23 -10 35 0 10 8 17 9 22 1
3 -5 15 -10 26 -10 16 0 19 7 19 54 0 58 -7 86 -21 86 -5 0 -6 -28 -3 -62 6
-58 5 -62 -9 -43 -13 17 -19 18 -36 8 -14 -9 -22 -9 -27 -2 -3 6 -16 8 -28 4
-11 -3 -43 -8 -70 -11 -28 -3 -53 -7 -57 -10 -20 -12 -16 17 3 33 37 30 69 70
72 86 2 17 95 127 107 127 5 0 13 -27 20 -60 8 -41 16 -60 26 -60 10 0 13 6 8
17 -3 10 -11 40 -16 67 -9 48 -8 51 23 83 18 19 44 37 58 40 34 8 80 41 80 57
0 7 23 38 51 67 51 55 142 181 191 267 22 38 28 60 28 114 0 37 4 77 9 90 5
13 11 130 15 261 l6 238 -62 112 c-34 62 -65 114 -68 117 -3 3 -18 25 -32 50
-38 64 -62 94 -156 190 -46 46 -79 86 -73 88 6 2 11 10 11 18 0 8 16 37 35 65
19 28 35 60 35 71 0 10 4 17 8 14 4 -2 14 -1 21 4 24 14 5 57 -67 145 -4 6
-11 17 -14 27 -31 80 -165 200 -245 219 -27 6 -58 18 -70 25 -12 8 -31 14 -41
14 -11 0 -22 9 -25 20 -3 11 -10 20 -16 20 -6 0 -20 -9 -31 -20z m11 -43 c-10
-9 -11 -8 -5 6 3 10 9 15 12 12 3 -3 0 -11 -7 -18z m49 -13 c0 -9 5 -12 12 -8
6 4 8 3 4 -4 -9 -15 15 -21 38 -10 12 6 22 6 28 0 6 -6 18 -8 27 -5 14 4 14 3
1 -6 -9 -6 -18 -7 -24 -1 -12 12 -29 13 -22 2 3 -5 -16 -8 -41 -7 -32 0 -48 5
-51 15 -3 13 -2 13 7 0 12 -18 24 -9 15 14 -7 18 -20 21 -29 6 -3 -5 -11 -10
-18 -10 -15 0 25 29 41 30 6 0 12 -7 12 -16z m-95 -23 c3 -5 2 -12 -3 -15 -5
-3 -9 1 -9 9 0 17 3 19 12 6z m45 -11 c-8 -5 -19 -10 -25 -10 -5 0 -3 5 5 10
8 5 20 10 25 10 6 0 3 -5 -5 -10z m320 -96 c14 -18 14 -18 -6 -1 -14 11 -31
16 -48 13 -16 -3 -25 0 -23 7 1 7 -4 11 -10 10 -7 -2 -13 2 -13 7 0 6 5 10 11
10 5 0 -3 11 -18 25 -17 16 -4 10 32 -14 34 -21 67 -47 75 -57z m-353 70 c-3
-3 -12 -4 -19 -1 -8 3 -5 6 6 6 11 1 17 -2 13 -5z m-46 -27 c-10 -9 -11 -8 -5
6 3 10 9 15 12 12 3 -3 0 -11 -7 -18z m-26 4 c-3 -5 2 -17 11 -25 8 -9 10 -16
4 -16 -6 0 -13 7 -16 15 -4 8 -10 12 -15 9 -5 -3 -6 -11 -3 -17 4 -7 4 -9 0
-5 -5 4 -14 1 -21 -5 -10 -9 -10 -16 -1 -27 9 -13 9 -13 -5 -3 -9 7 -20 10
-25 6 -5 -4 9 11 31 35 37 40 53 53 40 33z m191 -53 c3 -4 -3 -11 -14 -17 -11
-6 -22 -8 -25 -5 -3 3 -16 1 -29 -6 -22 -11 -22 -10 -3 5 11 8 26 13 33 10 9
-3 12 0 9 9 -6 14 16 17 29 4z m50 0 c3 -4 -1 -5 -10 -4 -8 1 -18 5 -22 8 -3
4 1 5 10 4 8 -1 18 -5 22 -8z m154 -13 c7 -9 8 -15 2 -15 -5 0 -12 7 -16 15
-3 8 -4 15 -2 15 2 0 9 -7 16 -15z m-457 -19 c3 4 5 -3 4 -14 0 -11 -4 -19 -8
-16 -4 2 -10 -3 -13 -12 -5 -13 -2 -15 13 -11 19 5 38 -19 26 -31 -3 -3 -5 -1
-5 5 0 17 -48 21 -75 7 -14 -7 -25 -9 -25 -3 0 5 5 9 11 9 5 0 7 4 4 10 -4 6
1 7 11 3 11 -4 22 1 30 12 18 24 18 39 0 32 -10 -4 -13 -1 -9 9 4 10 9 12 18
4 6 -5 15 -7 18 -4z m314 0 c0 -8 -6 -12 -14 -9 -7 3 -10 9 -7 14 8 14 21 11
21 -5z m175 -18 c-6 -6 -16 -7 -22 -3 -9 6 -9 9 1 16 17 10 34 0 21 -13z
m-198 -44 c25 -26 46 -51 46 -57 0 -5 12 -7 29 -4 17 4 36 0 50 -9 12 -9 29
-13 37 -10 10 4 33 -12 65 -44 27 -28 58 -50 69 -50 12 0 20 -7 20 -17 0 -15
-33 -64 -65 -97 -9 -8 -15 -17 -15 -18 5 -10 -18 -71 -46 -127 -19 -36 -34
-73 -34 -83 0 -31 -28 -64 -85 -102 -30 -20 -57 -36 -60 -36 -3 0 -23 -11 -45
-25 -44 -28 -55 -31 -44 -13 4 7 3 8 -5 4 -6 -4 -9 -11 -6 -15 2 -5 -14 -12
-38 -15 -23 -4 -43 -3 -44 1 -2 5 -18 7 -37 5 -67 -8 -169 64 -187 132 -17 61
16 256 42 256 5 0 9 7 9 15 0 25 -19 17 -39 -16 -31 -50 -46 -232 -25 -284 14
-32 58 -85 71 -85 4 0 15 -5 23 -10 13 -8 12 -11 -5 -24 -11 -9 -32 -16 -47
-16 -24 0 -31 10 -72 93 -50 101 -88 207 -75 207 5 0 9 -4 9 -8 0 -15 58 -77
65 -70 7 7 -19 47 -64 95 -38 42 -41 126 -7 212 22 56 32 70 61 84 45 21 45 6
0 -34 -19 -18 -35 -36 -35 -41 0 -16 19 -7 54 27 20 19 38 30 42 24 3 -5 1
-16 -6 -24 -6 -7 -10 -29 -8 -47 2 -25 8 -34 26 -36 25 -4 30 13 7 22 -15 6
-21 41 -7 49 4 3 6 31 5 64 -1 46 3 63 20 81 26 28 47 28 69 -2 17 -23 17 -32
3 -88 -6 -25 -5 -28 18 -28 16 0 28 7 32 19 3 11 19 21 36 25 18 3 33 14 36
24 2 10 17 26 34 37 35 24 44 47 30 74 -8 14 -8 21 2 24 29 12 47 4 91 -39z
m-115 -13 c-2 -6 -10 2 -17 17 -11 25 -11 25 4 10 9 -9 15 -21 13 -27z m216
29 c3 -6 -1 -7 -9 -4 -18 7 -21 14 -7 14 6 0 13 -4 16 -10z m66 -22 c9 -16 8
-19 -2 -13 -9 6 -11 3 -6 -8 3 -10 2 -17 -3 -17 -6 0 -10 7 -10 16 0 8 -4 13
-9 10 -5 -3 -12 1 -15 9 -4 13 -2 14 14 5 22 -12 27 -1 8 19 -10 11 -10 12 -1
7 7 -4 18 -16 24 -28z m73 24 c3 -5 -1 -9 -9 -9 -8 0 -12 4 -9 9 3 4 7 8 9 8
2 0 6 -4 9 -8z m-381 -47 c-7 -21 -12 -19 -10 4 0 11 5 18 9 15 4 -3 5 -11 1
-19z m347 5 c-11 -11 -23 -20 -27 -20 -3 0 2 9 12 20 10 11 22 20 27 20 4 0
-1 -9 -12 -20z m-408 -12 c-9 -9 -9 -15 0 -25 6 -7 9 -15 7 -17 -2 -2 -13 8
-23 22 -11 14 -14 22 -8 18 7 -4 15 0 18 9 4 9 9 13 12 10 3 -3 0 -11 -6 -17z
m436 -16 c2 -7 -1 -12 -8 -12 -6 0 -9 4 -6 9 4 5 1 12 -4 14 -6 3 -5 4 2 3 6
-1 14 -8 16 -14z m-410 -23 c-3 -8 -7 -3 -11 10 -4 17 -3 21 5 13 5 -5 8 -16
6 -23z m451 21 c-1 -3 3 -15 10 -28 11 -20 15 -21 29 -11 14 11 15 11 5 -1
-15 -16 -60 -22 -68 -9 -3 5 1 6 9 3 11 -4 16 0 16 11 0 9 -4 14 -8 11 -4 -2
-9 4 -9 15 -1 11 3 19 8 17 6 -2 9 -6 8 -8z m-491 -31 c9 -12 9 -16 -1 -16 -7
0 -14 9 -14 20 -1 11 -1 18 0 16 2 -2 8 -11 15 -20z m-319 -132 c-41 -102 -7
-299 76 -447 8 -14 22 -42 31 -62 15 -35 19 -38 59 -38 27 0 51 7 68 20 28 22
59 25 105 9 31 -11 141 4 152 21 3 4 30 21 60 37 108 60 119 68 137 98 15 25
37 86 47 132 1 7 12 22 23 32 12 11 23 25 25 31 4 12 158 -133 158 -149 0 -5
6 -16 13 -23 29 -29 172 -255 170 -268 -1 -3 10 -24 24 -47 l24 -42 -11 -228
c-17 -375 -19 -388 -63 -463 -55 -94 -127 -193 -181 -247 -25 -26 -46 -55 -46
-64 0 -20 -15 -27 -47 -21 -28 5 -31 40 -8 76 23 35 26 64 7 75 -13 7 -14 12
-3 25 13 16 7 36 -11 36 -9 0 -76 -48 -107 -78 -29 -28 -23 0 7 31 18 18 32
43 32 55 0 25 -33 46 -61 39 -10 -3 -22 -1 -25 4 -3 5 2 9 10 9 8 0 39 23 68
51 29 27 65 57 80 64 43 24 68 63 68 109 0 22 -9 99 -20 170 -11 71 -20 163
-20 205 0 82 -15 151 -32 151 -6 0 -8 -9 -3 -22 4 -13 9 -76 12 -141 l6 -119
-64 -64 c-35 -35 -67 -64 -71 -64 -4 0 -29 -13 -55 -29 -27 -15 -74 -39 -105
-51 -31 -13 -55 -27 -53 -31 7 -10 70 6 107 28 67 39 68 38 48 -28 -10 -32
-17 -59 -15 -59 3 0 -9 -30 -25 -66 -17 -36 -30 -70 -30 -75 0 -19 20 -8 34
19 l14 27 5 -25 c3 -14 5 -36 6 -49 0 -13 6 -28 13 -32 19 -12 -12 -61 -93
-144 -109 -112 -155 -167 -174 -207 -9 -21 -25 -38 -33 -38 -27 0 -82 -70 -82
-103 0 -27 -5 -23 -60 53 -33 46 -60 88 -60 95 0 12 -69 191 -101 262 -11 23
-28 47 -40 53 -11 6 -18 17 -16 23 2 7 -1 28 -8 47 -29 84 -34 111 -40 210 -4
58 -17 155 -30 215 -13 61 -26 136 -29 168 -4 32 -14 73 -22 90 -12 23 -16 56
-15 134 2 122 -17 144 -21 26 l-3 -78 -20 42 c-11 23 -26 43 -32 43 -18 0 -19
3 33 -101 27 -53 48 -111 49 -134 2 -22 10 -69 18 -105 39 -175 46 -213 52
-310 3 -58 14 -134 24 -170 28 -95 32 -116 45 -212 l13 -86 -25 -5 c-14 -3
-36 0 -50 6 -17 8 -28 8 -42 -1 -14 -9 -21 -8 -31 4 -7 9 -23 14 -36 11 -13
-2 -23 0 -23 4 0 5 -7 6 -16 2 -13 -5 -14 2 -9 53 6 59 6 60 -74 217 -45 87
-81 165 -81 174 0 9 -6 24 -14 32 -8 9 -20 39 -26 66 -25 105 -29 121 -39 161
-6 23 -11 61 -11 86 0 24 -10 71 -22 103 -18 51 -22 86 -25 235 -2 107 1 190
8 215 20 73 91 203 141 260 57 63 73 73 125 81 21 3 83 15 138 27 55 13 110
24 122 25 l23 2 -21 -53z m847 -1109 c22 -136 21 -141 -38 -190 -28 -24 -66
-57 -84 -75 -33 -33 -65 -53 -83 -53 -16 0 -13 117 4 175 9 28 20 67 26 87 5
20 17 39 27 43 9 3 41 28 71 55 30 28 56 48 59 45 2 -2 11 -42 18 -87z m-1275
-118 c5 0 9 -10 9 -23 0 -19 42 -110 107 -232 6 -11 19 -39 29 -63 l18 -44
-33 -25 c-18 -15 -38 -32 -45 -38 -8 -10 -24 -1 -71 38 -33 28 -70 62 -81 76
-12 14 -37 30 -55 36 -29 10 -34 17 -37 48 -2 25 -9 38 -23 42 -21 7 -25 20
-9 30 13 8 13 45 0 45 -6 0 1 12 15 27 14 15 25 35 25 44 0 19 -13 17 -129
-20 -36 -11 -67 -18 -70 -15 -8 8 22 33 69 56 25 13 45 28 44 33 0 6 23 16 50
23 28 7 71 23 96 35 l45 23 18 -48 c10 -26 23 -48 28 -48z m-296 0 c-3 -5 -14
-10 -23 -10 -15 0 -15 2 -2 10 20 13 33 13 25 0z m-84 -63 c-10 -9 -11 -8 -5
6 3 10 9 15 12 12 3 -3 0 -11 -7 -18z m-100 -160 c-10 -9 -11 -8 -5 6 3 10 9
15 12 12 3 -3 0 -11 -7 -18z m1619 -37 c12 -8 10 -14 -13 -38 -19 -20 -27 -38
-27 -65 0 -21 5 -37 11 -37 7 0 32 19 57 42 33 30 47 38 50 27 3 -8 12 -19 19
-24 12 -9 11 -15 -7 -38 -17 -21 -21 -38 -18 -75 3 -47 2 -48 -57 -101 -81
-72 -155 -153 -155 -169 0 -8 -29 -44 -65 -82 -46 -47 -64 -72 -59 -84 3 -9
10 -16 15 -16 5 0 9 -6 9 -14 0 -19 -37 -9 -78 22 -23 18 -31 30 -27 43 5 15
1 19 -18 19 -20 0 -24 -4 -20 -20 4 -16 2 -19 -11 -14 -9 3 -16 11 -16 17 0 8
-3 8 -11 0 -16 -16 -2 -33 25 -33 22 0 46 -17 46 -33 0 -5 -8 -6 -17 -2 -10 4
-27 8 -37 11 -11 2 -24 8 -30 14 -7 7 -12 132 -7 182 2 12 71 78 83 78 18 0
48 31 48 50 0 19 38 63 150 175 41 42 75 80 75 84 0 11 57 90 65 91 3 0 12 -5
20 -10z m-1175 -130 c-3 -5 1 -10 9 -10 19 0 21 -16 4 -26 -6 -4 -8 -3 -5 3 4
6 0 14 -9 17 -13 5 -12 26 2 26 3 0 2 -4 -1 -10z m-4 -47 c13 -16 12 -17 -3
-4 -10 7 -18 15 -18 17 0 8 8 3 21 -13z m148 -25 c-2 -2 -24 -21 -49 -43 l-45
-40 40 43 c21 23 43 42 49 42 5 0 7 -1 5 -2z m146 -28 c3 -6 40 -9 84 -7 l78
2 7 -135 c7 -134 7 -135 43 -187 20 -29 34 -56 31 -59 -4 -3 5 -29 18 -57 32
-71 30 -88 -16 -136 -38 -39 -43 -41 -100 -41 -41 0 -60 4 -61 13 0 6 -1 32
-1 57 0 32 -1 36 -5 15 -6 -39 -28 -55 -75 -55 -21 0 -38 -5 -38 -11 0 -7 12
-9 33 -5 25 5 36 2 49 -13 15 -18 14 -19 -13 -25 -27 -5 -131 33 -143 53 -7
10 62 32 88 29 10 -2 21 3 23 10 3 6 -2 12 -10 12 -8 0 -22 12 -32 26 -18 28
-15 65 12 124 13 29 14 43 4 95 -9 45 -10 266 -2 303 2 6 21 1 26 -8z m-1178
-6 c-3 -3 -12 -4 -19 -1 -8 3 -5 6 6 6 11 1 17 -2 13 -5z m897 -15 c-3 -5 -10
-7 -15 -3 -5 3 -7 10 -3 15 3 5 10 7 15 3 5 -3 7 -10 3 -15z m46 17 c0 -2 -8
-10 -17 -17 -16 -13 -17 -12 -4 4 13 16 21 21 21 13z m-983 -12 c-3 -3 -12 -4
-19 -1 -8 3 -5 6 6 6 11 1 17 -2 13 -5z m913 -48 c0 -2 -8 -10 -17 -17 -16
-13 -17 -12 -4 4 13 16 21 21 21 13z m65 -5 c3 -5 2 -12 -3 -15 -5 -3 -9 1 -9
9 0 17 3 19 12 6z m-1290 -11 c3 -6 -1 -7 -9 -4 -18 7 -21 14 -7 14 6 0 13 -4
16 -10z m1803 -25 c-3 -3 -9 2 -12 12 -6 14 -5 15 5 6 7 -7 10 -15 7 -18z
m-81 -37 c-3 -8 -6 -5 -6 6 -1 11 2 17 5 13 3 -3 4 -12 1 -19z m-1148 -2 c9
-11 9 -16 -1 -22 -7 -4 -10 -4 -6 1 4 4 3 14 -3 22 -6 7 -9 13 -6 13 2 0 10
-6 16 -14z m-1024 -6 c-3 -5 -12 -10 -18 -10 -7 0 -6 4 3 10 19 12 23 12 15 0z
m1922 -42 c-3 -7 -5 -2 -5 12 0 14 2 19 5 13 2 -7 2 -19 0 -25z m278 -18 c-3
-5 -12 -10 -18 -10 -7 0 -6 4 3 10 19 12 23 12 15 0z m-754 -43 c-10 -9 -11
-8 -5 6 3 10 9 15 12 12 3 -3 0 -11 -7 -18z m-604 7 c-3 -3 -12 -4 -19 -1 -8
3 -5 6 6 6 11 1 17 -2 13 -5z m-50 -10 c-3 -3 -12 -4 -19 -1 -8 3 -5 6 6 6 11
1 17 -2 13 -5z m390 0 c-3 -3 -12 -4 -19 -1 -8 3 -5 6 6 6 11 1 17 -2 13 -5z
m-620 -40 c-3 -3 -12 -4 -19 -1 -8 3 -5 6 6 6 11 1 17 -2 13 -5z m-697 -34 c0
-11 -9 -29 -21 -41 -19 -19 -19 -20 -2 -15 10 3 32 2 48 -3 l30 -8 -32 -7
c-18 -4 -39 -16 -47 -27 -12 -17 -15 -18 -26 -4 -11 13 -10 14 5 9 13 -5 16
-4 11 5 -4 7 -3 10 5 9 6 -2 13 2 15 7 2 6 -5 11 -16 11 -11 0 -20 -4 -20 -8
0 -4 -5 -8 -10 -8 -6 0 -4 11 5 25 8 14 22 36 30 50 19 30 25 32 25 5z m1610
6 c0 -2 -7 -7 -16 -10 -8 -3 -12 -2 -9 4 6 10 25 14 25 6z m-1497 -33 c-7 -2
-19 -2 -25 0 -7 3 -2 5 12 5 14 0 19 -2 13 -5z m416 -37 c12 -15 4 -106 -10
-106 -5 0 -6 -7 -3 -15 4 -8 2 -15 -4 -15 -6 0 -9 8 -7 18 1 9 -2 22 -7 29 -8
10 -7 60 1 101 2 7 20 0 30 -12z m69 -17 c-10 -7 -10 -9 -1 -9 8 0 10 -7 6
-17 -5 -14 -8 -12 -16 10 -5 15 -14 27 -20 27 -7 0 -6 4 3 10 9 6 19 5 28 -2
11 -9 11 -13 0 -19z m69 5 c-3 -3 -12 -4 -19 -1 -8 3 -5 6 6 6 11 1 17 -2 13
-5z m1746 -19 c-7 -21 -12 -19 -10 4 0 11 5 18 9 15 4 -3 5 -11 1 -19z m-1764
-32 c1 13 8 17 31 15 17 -1 30 -3 30 -4 0 0 -10 -9 -22 -20 -12 -10 -18 -14
-15 -7 4 6 3 14 -3 18 -5 3 -10 -1 -10 -10 0 -26 -25 -11 -27 16 l-2 24 8 -25
c6 -17 9 -20 10 -7z m688 4 c0 -8 -6 -14 -14 -14 -9 0 -10 4 -2 14 6 7 12 13
14 13 1 0 2 -6 2 -13z m1148 -7 c-3 -5 -12 -10 -18 -10 -7 0 -6 4 3 10 19 12
23 12 15 0z m-1906 -63 c-5 -18 -9 -34 -9 -37 0 -3 -5 2 -10 10 -12 18 -13 53
-2 46 5 -3 9 1 9 9 0 8 -4 12 -9 9 -10 -6 -11 10 -1 20 16 15 31 -25 22 -57z
m2211 21 c0 -15 -52 -8 -76 11 -22 17 -23 20 -7 23 20 5 83 -21 83 -34z m60
32 c0 -5 -9 -14 -20 -20 -19 -10 -20 -10 -8 9 13 22 28 28 28 11z m-2202 -19
c11 -7 11 -9 -1 -14 -16 -6 -27 0 -27 15 0 10 11 10 28 -1z m641 -18 c14 11
14 10 2 -6 -10 -13 -17 -15 -27 -6 -8 6 -14 14 -14 17 0 3 5 1 12 -6 9 -9 15
-9 27 1z m755 -9 c3 -8 2 -12 -4 -9 -6 3 -10 10 -10 16 0 14 7 11 14 -7z
m-1384 -9 c-7 -9 -15 -13 -17 -11 -7 7 7 26 19 26 6 0 6 -6 -2 -15z m93 0 c4
-8 3 -16 -1 -19 -4 -3 -9 4 -9 15 -2 23 3 25 10 4z m-141 -53 c-3 -10 -1 -13
6 -8 6 3 13 2 17 -4 3 -5 2 -10 -4 -10 -6 0 -7 -8 -4 -17 6 -16 5 -16 -10 -4
-10 8 -17 28 -17 50 0 25 3 32 9 22 5 -8 7 -21 3 -29z m90 20 c-7 -2 -10 -7
-7 -12 3 -4 -2 -11 -11 -14 -8 -3 -13 -2 -11 2 2 4 7 15 10 25 4 11 12 15 19
11 9 -6 9 -9 0 -12z m1008 14 c0 -2 -8 -10 -17 -17 -16 -13 -17 -12 -4 4 13
16 21 21 21 13z m-514 -32 c1 -9 0 -13 -4 -10 -3 4 -7 14 -8 22 -1 9 0 13 4
10 3 -4 7 -14 8 -22z m119 17 c3 -5 2 -12 -3 -15 -5 -3 -9 1 -9 9 0 17 3 19
12 6z m-761 -46 c3 -8 1 -15 -4 -15 -6 0 -10 7 -10 15 0 8 2 15 4 15 2 0 6 -7
10 -15z m193 -17 c-6 -4 -18 -1 -26 5 -12 10 -14 9 -7 -7 7 -19 6 -19 -13 -2
-28 26 -18 35 23 22 21 -6 30 -13 23 -18z m-220 -43 c6 -14 7 -23 2 -19 -13 8
-31 44 -22 44 4 0 13 -11 20 -25z m66 8 c-4 -11 -3 -14 5 -9 17 10 15 1 -3
-14 -13 -11 -15 -8 -15 14 0 14 4 26 10 26 5 0 6 -7 3 -17z m77 13 c0 -3 -4
-8 -10 -11 -5 -3 -10 -1 -10 4 0 6 5 11 10 11 6 0 10 -2 10 -4z"/>
<path d="M3030 4231 c0 -5 5 -13 10 -16 6 -3 10 -2 10 4 0 5 -4 13 -10 16 -5
3 -10 2 -10 -4z"/>
<path d="M2564 4016 c-3 -9 -3 -31 0 -49 4 -17 7 -42 6 -55 0 -14 4 -21 11
-16 7 4 9 24 5 57 -7 46 -6 49 9 37 15 -13 17 -11 13 10 -4 28 -35 39 -44 16z"/>
<path d="M2965 3989 c-4 -6 -5 -12 -2 -15 2 -3 7 2 10 11 7 17 1 20 -8 4z"/>
<path d="M2700 3954 c0 -2 15 -11 33 -20 17 -9 51 -34 74 -57 38 -36 45 -39
65 -28 13 6 15 9 6 7 -12 -4 -32 10 -58 38 -27 29 -55 47 -81 54 -21 5 -39 8
-39 6z"/>
<path d="M2927 3919 c-28 -29 -28 -29 -3 -18 21 10 42 37 34 44 -2 2 -16 -10
-31 -26z"/>
<path d="M3034 3904 c-18 -14 -18 -15 4 -4 12 6 22 13 22 15 0 8 -5 6 -26 -11z"/>
<path d="M2735 3900 c-4 -6 -11 -7 -17 -4 -6 4 -8 2 -4 -4 3 -6 -1 -15 -10
-20 -20 -11 -10 -32 15 -32 9 0 26 -7 37 -15 10 -8 27 -15 36 -15 13 0 16 -7
12 -27 -6 -31 10 -21 20 13 8 25 -53 102 -72 90 -7 -4 -10 -11 -7 -16 3 -5 1
-11 -5 -15 -13 -8 -13 11 0 36 11 19 6 27 -5 9z m59 -55 c3 -8 1 -15 -4 -15
-6 0 -10 7 -10 15 0 8 2 15 4 15 2 0 6 -7 10 -15z"/>
<path d="M2870 3891 c0 -6 4 -13 10 -16 6 -3 7 1 4 9 -7 18 -14 21 -14 7z"/>
<path d="M2982 3850 c-7 -11 -8 -20 -3 -20 9 0 24 30 18 36 -1 2 -8 -6 -15
-16z"/>
<path d="M2906 3845 c-11 -8 -15 -15 -9 -15 6 0 16 7 23 15 16 19 11 19 -14 0z"/>
<path d="M2615 3800 c-16 -16 -27 -32 -24 -34 2 -2 18 12 35 30 38 42 29 45
-11 4z"/>
<path d="M2696 3815 c-2 -7 4 -15 17 -19 28 -7 30 -3 7 16 -15 13 -19 14 -24
3z"/>
<path d="M2743 3788 c-28 -13 -30 -28 -4 -21 10 2 26 -3 35 -12 9 -10 19 -15
22 -12 3 3 -3 14 -14 25 -11 11 -18 23 -14 26 8 8 1 7 -25 -6z"/>
<path d="M2960 3783 c0 -9 8 -25 17 -35 16 -18 16 -18 -3 -12 -10 4 -16 4 -12
-1 4 -4 0 -14 -8 -23 -14 -13 -11 -17 30 -35 25 -11 46 -24 46 -29 0 -5 -5 -6
-12 -2 -6 4 -8 3 -4 -4 3 -5 0 -13 -6 -15 -8 -3 -6 -6 5 -6 10 -1 21 9 26 22
9 23 2 45 -25 71 -14 15 -14 16 5 16 11 0 23 -4 26 -10 8 -12 25 -13 25 -1 0
4 -21 16 -46 26 -29 11 -44 22 -40 30 2 7 -2 16 -10 19 -9 3 -14 -1 -14 -11z
m30 -83 c0 -5 -2 -10 -4 -10 -3 0 -8 5 -11 10 -3 6 -1 10 4 10 6 0 11 -4 11
-10z"/>
<path d="M3020 3790 c8 -5 20 -10 25 -10 6 0 3 5 -5 10 -8 5 -19 10 -25 10 -5
0 -3 -5 5 -10z"/>
<path d="M3078 3793 c7 -3 16 -2 19 1 4 3 -2 6 -13 5 -11 0 -14 -3 -6 -6z"/>
<path d="M2482 3768 c0 -7 -4 -30 -8 -50 -4 -23 -3 -38 3 -38 5 0 10 6 10 13
0 6 4 29 8 50 4 22 3 37 -2 37 -5 0 -10 -6 -11 -12z"/>
<path d="M2713 3681 c-44 -21 -113 -77 -113 -94 0 -5 15 5 34 24 19 19 59 46
88 61 61 31 54 37 -9 9z"/>
<path d="M2893 3665 c-3 -9 -3 -31 0 -49 4 -27 1 -39 -17 -55 -17 -16 -25 -18
-34 -9 -9 9 -12 9 -12 1 0 -19 20 -26 35 -13 12 10 15 9 15 -8 0 -11 -4 -32
-10 -46 -6 -16 -6 -26 0 -26 5 0 12 23 16 50 4 28 10 50 15 50 5 0 7 27 6 60
-2 63 -4 69 -14 45z"/>
<path d="M2930 3672 c0 -19 30 -27 43 -12 9 10 9 12 -4 7 -9 -3 -22 0 -28 6
-8 8 -11 8 -11 -1z"/>
<path d="M2727 3640 c-3 -10 1 -27 9 -37 12 -16 13 -15 8 14 -6 29 -4 31 16
26 16 -4 21 -3 16 5 -11 19 -43 14 -49 -8z"/>
<path d="M2960 3630 c0 -5 7 -10 16 -10 8 0 12 5 9 10 -3 6 -10 10 -16 10 -5
0 -9 -4 -9 -10z"/>
<path d="M2780 3590 c0 -5 5 -10 11 -10 5 0 7 5 4 10 -3 6 -8 10 -11 10 -2 0
-4 -4 -4 -10z"/>
<path d="M2653 3573 c-13 -8 -23 -22 -23 -31 0 -12 5 -10 24 7 23 22 25 22 56
6 23 -12 29 -20 22 -27 -8 -8 -18 -6 -34 4 -22 14 -26 14 -47 -3 -20 -16 -21
-20 -7 -25 9 -3 13 -11 9 -17 -3 -6 -1 -7 5 -3 7 4 19 3 28 -2 11 -6 13 -11 5
-16 -6 -4 -11 -12 -11 -17 0 -6 4 -8 10 -4 5 3 31 -6 59 -19 44 -23 50 -24 55
-9 4 9 2 21 -4 27 -15 15 -12 26 5 20 8 -4 15 -12 15 -20 0 -24 19 -15 26 11
4 17 1 32 -10 44 -9 10 -13 21 -9 26 5 4 3 5 -3 2 -15 -8 -74 14 -108 41 -33
26 -34 26 -63 5z m48 -54 c20 -10 17 -29 -4 -29 -21 0 -40 17 -33 29 9 14 12
14 37 0z m98 -6 c3 -2 0 -8 -6 -14 -12 -12 -53 4 -53 22 0 8 48 3 59 -8z m-19
-49 c0 -9 -8 -10 -30 -4 -19 5 -28 5 -25 -1 4 -5 14 -9 23 -9 9 0 26 -7 36
-15 30 -23 -3 -19 -42 5 -28 17 -31 22 -20 39 9 16 16 17 35 8 13 -5 23 -16
23 -23z m53 22 c3 -8 3 -16 0 -19 -9 -10 -33 5 -33 19 0 18 26 18 33 0z"/>
<path d="M3041 3574 c0 -11 3 -14 6 -6 3 7 2 16 -1 19 -3 4 -6 -2 -5 -13z"/>
<path d="M2943 3529 c12 -7 16 -17 11 -31 -4 -14 -2 -18 5 -14 19 12 9 52 -14
53 -18 2 -19 1 -2 -8z"/>
<path d="M2310 3460 c0 -3 20 -16 45 -28 46 -22 54 -20 32 9 -12 16 -77 32
-77 19z"/>
<path d="M2420 3290 c0 -5 5 -10 10 -10 6 0 10 5 10 10 0 6 -4 10 -10 10 -5 0
-10 -4 -10 -10z"/>
<path d="M2453 3253 c9 -9 19 -14 23 -11 10 10 -6 28 -24 28 -15 0 -15 -1 1
-17z"/>
<path d="M3030 3067 c0 -14 -79 -106 -155 -181 -28 -28 -36 -40 -26 -44 17 -6
200 185 201 210 0 9 -4 20 -10 23 -5 3 -10 0 -10 -8z"/>
<path d="M2485 3050 c17 -7 15 -9 -12 -9 -33 -1 -39 -7 -25 -27 10 -15 42 -14
42 2 0 7 5 14 12 16 17 6 0 28 -20 27 -14 0 -13 -2 3 -9z m-8 -26 c-3 -3 -12
-4 -19 -1 -8 3 -5 6 6 6 11 1 17 -2 13 -5z"/>
<path d="M2530 3039 c0 -6 9 -9 20 -6 17 4 18 2 9 -14 -8 -16 -6 -19 9 -19 28
0 34 11 15 32 -18 20 -53 25 -53 7z"/>
<path d="M2505 3019 c-10 -14 -1 -21 19 -13 9 3 13 10 10 15 -7 12 -21 11 -29
-2z"/>
<path d="M2015 2921 c-3 -5 -1 -12 5 -16 5 -3 10 1 10 9 0 18 -6 21 -15 7z"/>
<path d="M2035 2879 c-4 -6 -3 -15 3 -21 6 -6 11 -4 15 6 7 18 -9 31 -18 15z"/>
<path d="M2610 2880 c0 -5 5 -10 10 -10 6 0 10 5 10 10 0 6 -4 10 -10 10 -5 0
-10 -4 -10 -10z"/>
<path d="M2520 2839 c0 -5 5 -7 10 -4 6 3 10 8 10 11 0 2 -4 4 -10 4 -5 0 -10
-5 -10 -11z"/>
<path d="M2043 2796 c3 -8 1 -17 -6 -20 -9 -3 -8 -5 1 -5 7 -1 10 -6 6 -13 -4
-7 -3 -8 4 -4 15 9 16 56 1 56 -6 0 -9 -6 -6 -14z"/>
<path d="M2066 2744 c-4 -9 -4 -19 -1 -22 2 -3 7 3 11 12 4 9 4 19 1 22 -2 3
-7 -3 -11 -12z"/>
<path d="M3346 2521 c-4 -5 -2 -12 3 -15 5 -4 12 -2 15 3 4 5 2 12 -3 15 -5 4
-12 2 -15 -3z"/>
<path d="M3309 2458 c0 -2 -2 -11 -4 -21 -3 -15 -1 -16 11 -6 16 13 19 29 4
29 -5 0 -10 -1 -11 -2z"/>
<path d="M3233 2396 c-16 -34 -11 -65 6 -37 5 8 22 14 37 15 16 1 30 4 32 9 5
16 1 19 -13 7 -17 -14 -36 -5 -29 14 3 8 1 17 -5 21 -6 3 -18 -10 -28 -29z
m27 -10 c0 -2 -7 -7 -16 -10 -8 -3 -12 -2 -9 4 6 10 25 14 25 6z"/>
<path d="M2190 2390 c0 -5 5 -10 10 -10 6 0 10 5 10 10 0 6 -4 10 -10 10 -5 0
-10 -4 -10 -10z"/>
<path d="M2235 2331 c-3 -5 -1 -12 5 -16 5 -3 10 1 10 9 0 18 -6 21 -15 7z"/>
<path d="M2245 2250 c-4 -6 5 -10 19 -10 14 0 26 5 26 10 0 6 -9 10 -19 10
-11 0 -23 -4 -26 -10z"/>
<path d="M2570 2209 c0 -5 5 -7 10 -4 6 3 10 8 10 11 0 2 -4 4 -10 4 -5 0 -10
-5 -10 -11z"/>
<path d="M2607 2139 c-9 -6 -17 -15 -17 -21 0 -6 -7 -20 -17 -30 -9 -10 -13
-21 -9 -25 7 -7 46 31 46 46 0 6 7 14 16 19 9 5 13 12 8 15 -5 3 -17 1 -27 -4z"/>
<path d="M2888 1999 c-10 -5 -18 -17 -18 -25 0 -12 4 -12 25 3 37 27 31 45 -7
22z"/>
<path d="M2746 1833 c-11 -11 -6 -23 9 -23 8 0 15 4 15 9 0 13 -16 22 -24 14z"/>
<path d="M2270 1695 c0 -8 2 -15 4 -15 2 0 6 7 10 15 3 8 1 15 -4 15 -6 0 -10
-7 -10 -15z"/>
<path d="M2293 1674 c-7 -18 11 -39 25 -30 12 7 4 46 -9 46 -6 0 -12 -7 -16
-16z"/>
<path d="M2331 1606 c-10 -11 -9 -16 4 -24 9 -5 16 -13 15 -18 -2 -14 29 -17
45 -4 21 17 19 30 -4 30 -10 0 -21 7 -25 15 -7 19 -20 19 -35 1z"/>
<path d="M589 1738 c-7 -15 -6 -59 1 -63 5 -3 8 3 8 12 0 10 3 26 7 36 4 10 3
17 -4 17 -6 0 -12 -1 -12 -2z"/>
<path d="M1600 4369 c0 -9 6 -32 14 -50 10 -24 12 -59 9 -129 -5 -87 -3 -100
21 -152 15 -32 42 -84 61 -115 38 -64 38 -87 -2 -139 -12 -17 -23 -36 -23 -42
0 -7 -4 -12 -10 -12 -26 0 1 -101 33 -129 22 -17 22 -69 0 -93 -14 -16 -14
-18 -1 -18 9 0 19 7 22 16 10 25 7 92 -4 99 -6 4 -20 25 -31 47 -23 45 -20 59
27 123 32 45 38 73 24 116 -7 22 -16 39 -20 39 -7 0 -36 55 -70 135 -19 44
-21 62 -16 145 5 81 3 101 -14 135 -11 22 -19 33 -20 24z"/>
<path d="M1104 3775 c-7 -18 25 -145 37 -145 4 0 -1 28 -12 63 -10 34 -16 70
-13 80 7 21 -4 23 -12 2z"/>
<path d="M1372 3718 c-21 -21 -13 -46 22 -67 39 -24 66 -27 66 -7 0 15 21 26
51 26 14 0 19 7 19 25 0 30 -25 43 -51 27 -11 -7 -20 -8 -24 -2 -9 14 -69 12
-83 -2z m66 -25 c5 -17 -26 -29 -40 -15 -6 6 -7 15 -3 22 9 14 37 9 43 -7z
m72 9 c0 -13 -12 -22 -22 -16 -10 6 -1 24 13 24 5 0 9 -4 9 -8z"/>
<path d="M1137 3614 c-3 -4 5 -17 18 -29 12 -13 30 -43 39 -67 17 -43 16 -46
-8 -123 -14 -44 -26 -97 -26 -118 0 -42 21 -117 32 -117 5 0 8 -9 8 -20 0 -11
4 -20 9 -20 23 0 22 -60 -2 -109 -13 -28 -21 -51 -16 -51 10 0 21 18 36 60 19
52 17 64 -23 148 -39 82 -42 126 -11 202 33 81 30 140 -9 201 -25 40 -38 52
-47 43z"/>
<path d="M969 3186 c-7 -15 -17 -22 -23 -18 -22 13 -40 10 -58 -10 -10 -12
-18 -27 -18 -33 0 -17 92 -27 105 -12 6 7 19 17 30 23 29 16 27 68 -2 72 -16
2 -26 -4 -34 -22z m41 -10 c0 -8 -7 -16 -15 -20 -13 -4 -14 -2 -5 14 13 23 20
26 20 6z m-70 -40 c0 -9 -9 -14 -20 -13 -20 1 -25 9 -13 20 12 12 33 7 33 -7z"/>
</g>
</svg>
