<?xml version="1.0" standalone="no"?>
<!DOCTYPE svg PUBLIC "-//W3C//DTD SVG 20010904//EN"
 "http://www.w3.org/TR/2001/REC-SVG-20010904/DTD/svg10.dtd">
<svg version="1.0" xmlns="http://www.w3.org/2000/svg"
 width="1024.000000pt" height="1024.000000pt" viewBox="0 0 1024.000000 1024.000000"
 preserveAspectRatio="xMidYMid meet">
<metadata>
Created by potrace 1.14, written by Peter Selinger 2001-2017
</metadata>
<g transform="translate(0.000000,1024.000000) scale(0.100000,-0.100000)"
fill="#000000" stroke="none">
<path d="M6458 7818 l-75 -223 -254 -5 -254 -5 55 -41 c30 -23 111 -82 180
-133 69 -50 138 -102 154 -114 l29 -23 -70 -232 c-51 -170 -66 -232 -56 -227
13 4 202 140 333 239 l39 29 128 -93 c70 -52 155 -113 187 -137 33 -23 61 -41
63 -39 2 2 -23 94 -56 204 -84 282 -84 258 -9 314 102 77 250 188 290 216 21
15 37 30 38 35 0 4 -108 7 -239 7 l-239 0 -30 83 c-16 45 -50 146 -76 225 -26
78 -51 142 -55 142 -4 0 -42 -100 -83 -222z"/>
<path d="M4860 7485 c-157 -22 -373 -74 -511 -121 -373 -127 -781 -403 -1051
-710 -301 -342 -488 -698 -587 -1114 -51 -216 -55 -261 -55 -565 0 -255 2
-305 22 -419 56 -323 146 -577 303 -855 95 -168 242 -381 263 -381 3 0 31 46
62 103 32 56 115 203 185 327 69 124 200 358 289 520 89 162 178 320 196 351
l34 57 0 525 0 526 183 3 182 3 175 111 c236 149 520 334 1022 664 171 113
315 208 321 211 5 4 -14 35 -42 70 -128 157 -200 402 -173 586 l9 63 -34 11
c-127 42 -600 62 -793 34z m174 -630 c9 -57 48 -100 107 -115 64 -16 69 -18
69 -29 0 -11 -15 -16 -72 -25 -50 -9 -94 -61 -103 -121 -10 -60 -31 -59 -39 3
-10 76 -46 112 -129 127 -36 7 -49 22 -24 29 6 2 31 9 53 15 59 16 92 53 100
112 8 62 29 65 38 4z m-629 -352 c172 -89 218 -306 94 -447 -22 -25 -64 -57
-94 -72 -50 -24 -63 -26 -143 -22 -74 3 -96 9 -136 32 -49 29 -102 93 -123
149 -21 57 -16 166 11 222 27 60 100 127 159 149 59 22 179 16 232 -11z
m-1035 -1463 c14 -59 51 -95 116 -111 56 -15 57 -35 1 -43 -65 -10 -107 -49
-115 -110 -8 -56 -28 -72 -37 -29 -22 108 -43 132 -122 141 -59 6 -54 25 12
46 63 20 90 49 100 109 13 74 27 74 45 -3z"/>
<path d="M7060 6426 l0 -106 -573 0 -573 0 -70 -117 -71 -118 61 -6 c34 -4
261 -5 506 -3 245 2 453 1 463 -2 15 -5 17 -20 17 -125 l0 -119 -596 -2 -596
-3 -69 -114 c-38 -62 -69 -117 -69 -122 0 -5 239 -9 540 -9 l541 0 -3 -117 -3
-118 -575 -1 c-316 -1 -595 -2 -620 -3 l-45 -1 -65 -111 c-36 -62 -66 -116
-68 -120 -2 -5 222 -9 506 -9 280 0 524 -3 541 -6 l32 -7 -3 -114 -3 -115
-615 -1 -615 -2 -72 -120 -72 -120 534 -3 535 -2 0 -120 0 -120 -612 -2 -613
-3 -72 -115 c-40 -63 -73 -118 -73 -122 0 -5 239 -8 530 -8 l530 0 0 -120 0
-120 -605 0 -605 0 -43 -67 c-66 -103 -100 -163 -95 -168 2 -3 237 -5 521 -5
l517 -1 0 -119 0 -120 -589 0 -590 0 -24 -32 c-27 -37 -117 -191 -117 -201 0
-4 225 -7 500 -7 l500 0 0 -120 0 -120 -583 0 -584 0 -26 -37 c-14 -20 -24
-40 -21 -44 2 -5 51 -33 107 -64 733 -403 1581 -432 2319 -78 261 126 474 278
689 492 417 417 668 976 720 1601 47 573 -134 1200 -464 1610 -124 154 -117
152 -117 26z m-45 -1248 c12 -75 47 -108 128 -123 50 -10 47 -31 -5 -38 -71
-9 -111 -52 -123 -129 -8 -50 -31 -49 -39 2 -13 84 -42 113 -125 126 -54 9
-48 24 14 40 63 16 101 56 110 118 9 59 31 61 40 4z m-194 -748 c13 -77 61
-123 138 -132 42 -5 35 -26 -11 -33 -87 -15 -128 -58 -128 -135 0 -19 -5 -30
-14 -30 -17 0 -26 22 -26 62 0 52 -78 108 -152 108 -21 0 -24 19 -5 25 6 2 32
9 56 15 58 15 89 50 97 112 5 37 10 48 23 46 9 -2 18 -17 22 -38z m-725 -795
c10 -71 40 -107 107 -129 66 -21 64 -39 -4 -50 -61 -10 -99 -52 -99 -110 0
-33 -4 -46 -14 -46 -15 0 -20 10 -31 67 -9 47 -48 80 -111 93 -30 6 -54 15
-54 20 0 4 22 13 49 20 28 6 61 22 75 35 23 21 46 79 46 116 0 17 9 29 21 29
4 0 11 -20 15 -45z"/>
<path d="M5455 6117 c-28 -18 -93 -59 -145 -91 -52 -33 -176 -112 -275 -176
-99 -65 -268 -174 -375 -244 l-195 -126 -102 0 -103 0 -1 -97 c-1 -54 -3 -248
-4 -431 l-3 -333 -77 -142 c-43 -78 -121 -221 -175 -317 -53 -96 -148 -267
-210 -380 -62 -113 -145 -263 -185 -335 -39 -71 -91 -165 -114 -207 l-42 -78
133 0 134 0 377 628 c207 345 417 695 468 777 50 83 178 294 284 470 237 394
477 790 579 954 115 186 115 183 31 128z"/>
</g>
</svg>
